<svg xmlns="http://www.w3.org/2000/svg" width="19.09" height="19.09" viewBox="0 0 19.09 19.09">
  <metadata><?xpacket begin="﻿" id="W5M0MpCehiHzreSzNTczkc9d"?>
<x:xmpmeta xmlns:x="adobe:ns:meta/" x:xmptk="Adobe XMP Core 5.6-c138 79.159824, 2016/09/14-01:09:01        ">
   <rdf:RDF xmlns:rdf="http://www.w3.org/1999/02/22-rdf-syntax-ns#">
      <rdf:Description rdf:about=""/>
   </rdf:RDF>
</x:xmpmeta>
                                                                                                    
                                                                                                    
                                                                                                    
                                                                                                    
                                                                                                    
                                                                                                    
                                                                                                    
                                                                                                    
                                                                                                    
                                                                                                    
                                                                                                    
                                                                                                    
                                                                                                    
                                                                                                    
                                                                                                    
                                                                                                    
                                                                                                    
                                                                                                    
                                                                                                    
                                                                                                    
                           
<?xpacket end="w"?></metadata>
<defs>
    <style>
      .cls-1 {
        fill: #1a1a1a;
        fill-rule: evenodd;
      }
    </style>
  </defs>
  <path id="IG" class="cls-1" d="M1079.12,2530a2.364,2.364,0,0,0,1.73.72h14.21a2.458,2.458,0,0,0,2.45-2.45v-14.2a2.348,2.348,0,0,0-.72-1.73,2.381,2.381,0,0,0-1.73-.72h-14.21a2.458,2.458,0,0,0-2.45,2.45v14.2A2.364,2.364,0,0,0,1079.12,2530Zm1.41-10.3h1.75a5.5,5.5,0,0,0-.25,1.63,5.427,5.427,0,0,0,1.75,4.07,5.813,5.813,0,0,0,4.19,1.69,6.015,6.015,0,0,0,2.98-.77,5.91,5.91,0,0,0,2.17-2.1,5.51,5.51,0,0,0,.79-2.89,5.194,5.194,0,0,0-.25-1.63h1.68v8.06a0.732,0.732,0,0,1-.22.54,0.773,0.773,0,0,1-.54.22h-13.29a0.751,0.751,0,0,1-.76-0.76v-8.06Zm7.44-2.29a3.735,3.735,0,0,1,2.71,1.09,3.626,3.626,0,0,1,0,5.26,3.914,3.914,0,0,1-5.42,0,3.648,3.648,0,0,1,0-5.26,3.735,3.735,0,0,1,2.71-1.09h0Zm3.49-2.81a0.816,0.816,0,0,1,.25-0.6,0.832,0.832,0,0,1,.61-0.26h2.16a0.871,0.871,0,0,1,.86.86v2.05a0.854,0.854,0,0,1-.86.86h-2.16a0.822,0.822,0,0,1-.61-0.25,0.807,0.807,0,0,1-.25-0.61v-2.05Z" transform="translate(-1078.41 -2511.63)"/>
</svg>
