<svg xmlns="http://www.w3.org/2000/svg" width="19.59" height="15.91" viewBox="0 0 19.59 15.91">
  <metadata><?xpacket begin="﻿" id="W5M0MpCehiHzreSzNTczkc9d"?>
<x:xmpmeta xmlns:x="adobe:ns:meta/" x:xmptk="Adobe XMP Core 5.6-c138 79.159824, 2016/09/14-01:09:01        ">
   <rdf:RDF xmlns:rdf="http://www.w3.org/1999/02/22-rdf-syntax-ns#">
      <rdf:Description rdf:about=""/>
   </rdf:RDF>
</x:xmpmeta>
                                                                                                    
                                                                                                    
                                                                                                    
                                                                                                    
                                                                                                    
                                                                                                    
                                                                                                    
                                                                                                    
                                                                                                    
                                                                                                    
                                                                                                    
                                                                                                    
                                                                                                    
                                                                                                    
                                                                                                    
                                                                                                    
                                                                                                    
                                                                                                    
                                                                                                    
                                                                                                    
                           
<?xpacket end="w"?></metadata>
<defs>
    <style>
      .cls-1 {
        fill: #1a1a1a;
        fill-rule: evenodd;
      }
    </style>
  </defs>
  <path id="TWTR" class="cls-1" d="M1172.79,2529.13a11.766,11.766,0,0,0,4.01-.68,10.111,10.111,0,0,0,3.21-1.82,12.262,12.262,0,0,0,2.3-2.62,11.379,11.379,0,0,0,1.43-3.09,11.22,11.22,0,0,0,.48-3.22c0-.24-0.01-0.41-0.02-0.53a8.455,8.455,0,0,0,2.02-2.07,7.918,7.918,0,0,1-2.32.62,3.878,3.878,0,0,0,1.77-2.21,7.968,7.968,0,0,1-2.55.97,3.841,3.841,0,0,0-2.93-1.27,3.995,3.995,0,0,0-4.02,4.01,4.179,4.179,0,0,0,.1.92,11.183,11.183,0,0,1-4.62-1.23,11.4,11.4,0,0,1-3.67-2.97,3.98,3.98,0,0,0-.54,2.03,3.925,3.925,0,0,0,.48,1.91,4.007,4.007,0,0,0,1.31,1.43,3.894,3.894,0,0,1-1.82-.51v0.05a3.887,3.887,0,0,0,.92,2.56,3.984,3.984,0,0,0,2.3,1.39,4.138,4.138,0,0,1-1.05.13,5.166,5.166,0,0,1-.76-0.06,4.056,4.056,0,0,0,3.75,2.79,7.876,7.876,0,0,1-4.98,1.71,7.209,7.209,0,0,1-.97-0.05,11.163,11.163,0,0,0,6.17,1.81h0Z" transform="translate(-1166.63 -2513.22)"/>
</svg>
